<svg xmlns="http://www.w3.org/2000/svg" width="30" height="30" viewBox="0 0 30 30">
  <defs>
    <style>
      .cls-1 {
        fill: #589233;
        fill-rule: evenodd;
      }
    </style>
  </defs>
  <path id="phone-icon" class="cls-1" d="M1293.72,67.582a2.952,2.952,0,0,0-2.14-.981,3.06,3.06,0,0,0-2.17.975l-2,1.994-0.49-.253a7.052,7.052,0,0,1-.63-0.336,21.746,21.746,0,0,1-5.22-4.749,13.039,13.039,0,0,1-1.71-2.7c0.52-.475,1-0.968,1.47-1.444,0.18-.178.36-0.361,0.53-0.538a2.9,2.9,0,0,0,0-4.381l-1.73-1.729c-0.19-.2-0.4-0.4-0.59-0.6-0.38-.393-0.78-0.8-1.19-1.178a2.993,2.993,0,0,0-2.12-.93,3.1,3.1,0,0,0-2.16.93c-0.01.005-.01,0.005-0.01,0.012l-2.16,2.172a4.623,4.623,0,0,0-1.37,2.944,10.942,10.942,0,0,0,.81,4.7,27.077,27.077,0,0,0,4.85,8.079,29.905,29.905,0,0,0,9.93,7.769,15.541,15.541,0,0,0,5.58,1.646c0.14,0.007.28,0.013,0.4,0.013a4.771,4.771,0,0,0,3.66-1.569c0.01-.013.02-0.02,0.03-0.032a14.416,14.416,0,0,1,1.11-1.147c0.27-.26.55-0.532,0.82-0.816a3.152,3.152,0,0,0,.96-2.192,3.047,3.047,0,0,0-.98-2.171Zm2.27,6.667h0c-0.25.266-.5,0.508-0.77,0.773-0.41.393-.83,0.8-1.23,1.267a3.05,3.05,0,0,1-2.38,1.006c-0.09,0-.2,0-0.29-0.005a13.88,13.88,0,0,1-4.95-1.482,28.171,28.171,0,0,1-9.36-7.32,25.767,25.767,0,0,1-4.56-7.591,8.952,8.952,0,0,1-.71-3.963,2.912,2.912,0,0,1,.87-1.881l2.16-2.159a1.477,1.477,0,0,1,.97-0.45,1.338,1.338,0,0,1,.92.443,0.039,0.039,0,0,1,.02.019c0.39,0.361.76,0.735,1.14,1.134,0.2,0.2.4,0.405,0.61,0.614l1.73,1.728a1.21,1.21,0,0,1,0,1.963c-0.19.184-.36,0.367-0.55,0.544-0.53.545-1.04,1.051-1.59,1.545-0.01.013-.02,0.02-0.03,0.032a1.289,1.289,0,0,0-.33,1.437c0.01,0.019.01,0.038,0.02,0.057a13.67,13.67,0,0,0,2.05,3.336V65.3a23.35,23.35,0,0,0,5.63,5.117c0.26,0.164.53,0.3,0.78,0.424,0.23,0.114.45,0.222,0.63,0.336,0.03,0.013.05,0.032,0.08,0.045a1.3,1.3,0,0,0,1.59-.278l2.17-2.166a1.43,1.43,0,0,1,.96-0.474,1.3,1.3,0,0,1,.91.462c0.01,0.007.01,0.007,0.01,0.013l3.5,3.489A1.25,1.25,0,0,1,1295.99,74.249Zm-9.78-18.114a8.049,8.049,0,0,1,4.38,2.266,8.134,8.134,0,0,1,2.27,4.37,0.849,0.849,0,0,0,.84.709,1.149,1.149,0,0,0,.15-0.013,0.85,0.85,0,0,0,.7-0.988,9.843,9.843,0,0,0-8.04-8.029,0.866,0.866,0,0,0-.99.7A0.847,0.847,0,0,0,1286.21,56.135Zm13.78,6.1a16.235,16.235,0,0,0-13.24-13.221,0.854,0.854,0,1,0-.28,1.684A14.509,14.509,0,0,1,1298.3,62.51a0.849,0.849,0,0,0,.84.709,1.054,1.054,0,0,0,.15-0.013A0.844,0.844,0,0,0,1299.99,62.232Z" transform="translate(-1270 -49)"/>
</svg>
